HIERARCHY
ROOT Hips
{
	OFFSET 0.000000 100.481300 0.000000
	CHANNELS 6 Xposition Yposition Zposition Xrotation Yrotation Zrotation 
	JOINT Spine
	{
		OFFSET -0.279200 12.230698 -2.892100
		CHANNELS 3 Xrotation Yrotation Zrotation
		JOINT Spine1
		{
			OFFSET -0.232667 10.192268 -1.242267
			CHANNELS 3 Xrotation Yrotation Zrotation
			JOINT Spine1_split
			{
				OFFSET -0.232667 10.192268 -1.242267
				CHANNELS 3 Xrotation Yrotation Zrotation
				JOINT Spine2
				{
					OFFSET -0.232667 10.192268 -1.242267
					CHANNELS 3 Xrotation Yrotation Zrotation
					JOINT Neck
					{
						OFFSET -0.418800 17.814194 8.416900
						CHANNELS 3 Xrotation Yrotation Zrotation
						JOINT Head
						{
							OFFSET 0.000000 7.031097 3.806800
							CHANNELS 3 Xrotation Yrotation Zrotation
							JOINT HeadTop_End
							{
								OFFSET 0.000000 24.646606 12.978600
								CHANNELS 3 Xrotation Yrotation Zrotation
								End Site
								{
									OFFSET 0.000000 0.000000 0.000000
								}
							}
						}
					}
					JOINT LeftShoulder
					{
						OFFSET 8.476499 7.247704 -3.868750
						CHANNELS 3 Xrotation Yrotation Zrotation
						JOINT LeftShoulder_split
						{
							OFFSET 8.476499 7.247704 -3.868750
							CHANNELS 3 Xrotation Yrotation Zrotation
							JOINT LeftArm
							{
								OFFSET 9.308998 -2.777710 0.208600
								CHANNELS 3 Xrotation Yrotation Zrotation
								JOINT LeftForeArm
								{
									OFFSET 29.972298 0.000000 0.000000
									CHANNELS 3 Xrotation Yrotation Zrotation
									JOINT LeftHand
									{
										OFFSET 26.026505 0.000000 0.000000
										CHANNELS 3 Xrotation Yrotation Zrotation
										JOINT LeftHandThumb1
										{
											OFFSET 12.240501 -7.147949 9.207150
											CHANNELS 3 Xrotation Yrotation Zrotation
											JOINT LeftHandThumb2
											{
												OFFSET 4.138618 -2.389435 2.389433
												CHANNELS 3 Xrotation Yrotation Zrotation
												JOINT LeftHandThumb3
												{
													OFFSET 2.726913 -1.574387 1.574386
													CHANNELS 3 Xrotation Yrotation Zrotation
													JOINT LeftHandThumb4
													{
														OFFSET 3.941010 -2.275345 2.275342
														CHANNELS 3 Xrotation Yrotation Zrotation
														End Site
														{
															OFFSET 0.000000 0.000000 0.000000
														}
													}
												}
											}
										}
										JOINT LeftHandIndex1
										{
											OFFSET 24.424698 -1.985611 5.953459
											CHANNELS 3 Xrotation Yrotation Zrotation
											JOINT LeftHandIndex2
											{
												OFFSET 6.426697 0.000000 0.000000
												CHANNELS 3 Xrotation Yrotation Zrotation
												JOINT LeftHandIndex3
												{
													OFFSET 5.337898 0.000000 0.000000
													CHANNELS 3 Xrotation Yrotation Zrotation
													JOINT LeftHandIndex4
													{
														OFFSET 4.409401 0.000000 0.000000
														CHANNELS 3 Xrotation Yrotation Zrotation
														End Site
														{
															OFFSET 0.000000 0.000000 0.000000
														}
													}
												}
											}
										}
										JOINT LeftHandMiddle1
										{
											OFFSET 23.810104 0.000000 0.000000
											CHANNELS 3 Xrotation Yrotation Zrotation
											JOINT LeftHandMiddle2
											{
												OFFSET 7.176498 0.000000 0.000000
												CHANNELS 3 Xrotation Yrotation Zrotation
												JOINT LeftHandMiddle3
												{
													OFFSET 6.774902 0.000000 0.000000
													CHANNELS 3 Xrotation Yrotation Zrotation
													JOINT LeftHandMiddle4
													{
														OFFSET 5.403328 0.000000 0.000000
														CHANNELS 3 Xrotation Yrotation Zrotation
														End Site
														{
															OFFSET 0.000000 0.000000 0.000000
														}
													}
												}
											}
										}
										JOINT LeftHandRing1
										{
											OFFSET 22.908401 -0.839279 -6.020567
											CHANNELS 3 Xrotation Yrotation Zrotation
											JOINT LeftHandRing2
											{
												OFFSET 6.337502 0.000000 0.000000
												CHANNELS 3 Xrotation Yrotation Zrotation
												JOINT LeftHandRing3
												{
													OFFSET 5.779297 0.000000 0.000000
													CHANNELS 3 Xrotation Yrotation Zrotation
													JOINT LeftHandRing4
													{
														OFFSET 4.965698 0.000000 0.000000
														CHANNELS 3 Xrotation Yrotation Zrotation
														End Site
														{
															OFFSET 0.000000 0.000000 0.000000
														}
													}
												}
											}
										}
										JOINT LeftHandPinky1
										{
											OFFSET 20.037003 -1.530319 -10.950146
											CHANNELS 3 Xrotation Yrotation Zrotation
											JOINT LeftHandPinky2
											{
												OFFSET 5.254700 0.000000 0.000000
												CHANNELS 3 Xrotation Yrotation Zrotation
												JOINT LeftHandPinky3
												{
													OFFSET 4.810204 0.000000 0.000000
													CHANNELS 3 Xrotation Yrotation Zrotation
													JOINT LeftHandPinky4
													{
														OFFSET 3.647202 0.000000 0.000000
														CHANNELS 3 Xrotation Yrotation Zrotation
														End Site
														{
															OFFSET 0.000000 0.000000 0.000000
														}
													}
												}
											}
										}
									}
								}
							}
						}
					}
					JOINT RightShoulder
					{
						OFFSET -7.570500 7.247704 -3.868750
						CHANNELS 3 Xrotation Yrotation Zrotation
						JOINT RightShoulder_split
						{
							OFFSET -7.570500 7.247704 -3.868750
							CHANNELS 3 Xrotation Yrotation Zrotation
							JOINT RightArm
							{
								OFFSET -9.308998 -2.777710 0.208500
								CHANNELS 3 Xrotation Yrotation Zrotation
								JOINT RightForeArm
								{
									OFFSET -29.972300 0.000000 0.000000
									CHANNELS 3 Xrotation Yrotation Zrotation
									JOINT RightHand
									{
										OFFSET -26.026505 0.000000 0.000000
										CHANNELS 3 Xrotation Yrotation Zrotation
										JOINT RightHandThumb1
										{
											OFFSET -12.240601 -7.148026 9.207092
											CHANNELS 3 Xrotation Yrotation Zrotation
											JOINT RightHandThumb2
											{
												OFFSET -4.138618 -2.389435 2.389433
												CHANNELS 3 Xrotation Yrotation Zrotation
												JOINT RightHandThumb3
												{
													OFFSET -2.726974 -1.574417 1.574421
													CHANNELS 3 Xrotation Yrotation Zrotation
													JOINT RightHandThumb4
													{
														OFFSET -3.941010 -2.275345 2.275343
														CHANNELS 3 Xrotation Yrotation Zrotation
														End Site
														{
															OFFSET 0.000000 0.000000 0.000000
														}
													}
												}
											}
										}
										JOINT RightHandIndex1
										{
											OFFSET -24.424698 -1.985657 5.953444
											CHANNELS 3 Xrotation Yrotation Zrotation
											JOINT RightHandIndex2
											{
												OFFSET -6.426697 0.000000 0.000000
												CHANNELS 3 Xrotation Yrotation Zrotation
												JOINT RightHandIndex3
												{
													OFFSET -5.337898 0.000000 0.000000
													CHANNELS 3 Xrotation Yrotation Zrotation
													JOINT RightHandIndex4
													{
														OFFSET -4.409401 0.000000 0.000000
														CHANNELS 3 Xrotation Yrotation Zrotation
														End Site
														{
															OFFSET 0.000000 0.000000 0.000000
														}
													}
												}
											}
										}
										JOINT RightHandMiddle1
										{
											OFFSET -23.810097 0.000000 0.000000
											CHANNELS 3 Xrotation Yrotation Zrotation
											JOINT RightHandMiddle2
											{
												OFFSET -7.176498 0.000000 0.000000
												CHANNELS 3 Xrotation Yrotation Zrotation
												JOINT RightHandMiddle3
												{
													OFFSET -6.774902 0.000000 0.000000
													CHANNELS 3 Xrotation Yrotation Zrotation
													JOINT RightHandMiddle4
													{
														OFFSET -5.403328 0.000000 0.000000
														CHANNELS 3 Xrotation Yrotation Zrotation
														End Site
														{
															OFFSET 0.000000 0.000000 0.000000
														}
													}
												}
											}
										}
										JOINT RightHandRing1
										{
											OFFSET -22.908302 -0.839325 -6.020576
											CHANNELS 3 Xrotation Yrotation Zrotation
											JOINT RightHandRing2
											{
												OFFSET -6.337502 0.000000 0.000000
												CHANNELS 3 Xrotation Yrotation Zrotation
												JOINT RightHandRing3
												{
													OFFSET -5.779297 0.000000 0.000000
													CHANNELS 3 Xrotation Yrotation Zrotation
													JOINT RightHandRing4
													{
														OFFSET -4.965698 0.000000 0.000000
														CHANNELS 3 Xrotation Yrotation Zrotation
														End Site
														{
															OFFSET 0.000000 0.000000 0.000000
														}
													}
												}
											}
										}
										JOINT RightHandPinky1
										{
											OFFSET -20.037003 -1.530334 -10.950259
											CHANNELS 3 Xrotation Yrotation Zrotation
											JOINT RightHandPinky2
											{
												OFFSET -5.254700 0.000000 0.000000
												CHANNELS 3 Xrotation Yrotation Zrotation
												JOINT RightHandPinky3
												{
													OFFSET -4.810204 0.000000 0.000000
													CHANNELS 3 Xrotation Yrotation Zrotation
													JOINT RightHandPinky4
													{
														OFFSET -3.647202 0.000000 0.000000
														CHANNELS 3 Xrotation Yrotation Zrotation
														End Site
														{
															OFFSET 0.000000 0.000000 0.000000
														}
													}
												}
											}
										}
									}
								}
							}
						}
					}
				}
			}
		}
	}
	JOINT LeftUpLeg
	{
		OFFSET 15.427100 -6.655098 0.678600
		CHANNELS 3 Xrotation Yrotation Zrotation
		JOINT LeftLeg
		{
			OFFSET 4.081073 -39.591068 13.024000
			CHANNELS 3 Xrotation Yrotation Zrotation
			JOINT LeftFoot
			{
				OFFSET -4.081074 -37.707932 -15.979700
				CHANNELS 3 Xrotation Yrotation Zrotation
				JOINT LeftToeBase
				{
					OFFSET 5.346399 -15.068900 20.645000
					CHANNELS 3 Xrotation Yrotation Zrotation
					JOINT LeftToe_End
					{
						OFFSET 2.754700 0.931300 11.300900
						CHANNELS 3 Xrotation Yrotation Zrotation
						End Site
						{
							OFFSET 0.000000 0.000000 0.000000
						}
					}
				}
			}
		}
	}
	JOINT RightUpLeg
	{
		OFFSET -15.569500 -6.655098 0.678600
		CHANNELS 3 Xrotation Yrotation Zrotation
		JOINT RightLeg
		{
			OFFSET -4.081825 -39.591045 13.023800
			CHANNELS 3 Xrotation Yrotation Zrotation
			JOINT RightFoot
			{
				OFFSET 4.081824 -37.707954 -15.979600
				CHANNELS 3 Xrotation Yrotation Zrotation
				JOINT RightToeBase
				{
					OFFSET -5.346400 -15.068900 20.645000
					CHANNELS 3 Xrotation Yrotation Zrotation
					JOINT RightToe_End
					{
						OFFSET -2.754700 0.931300 11.300900
						CHANNELS 3 Xrotation Yrotation Zrotation
						End Site
						{
							OFFSET 0.000000 0.000000 0.000000
						}
					}
				}
			}
		}
	}
}
MOTION
Frames: 5
Frame Time: 0.016667
2.687562 39.532074 -3.359976 0.493639 -176.231175 -8.576605 4.028736 4.477040 -2.698278 8.138437 6.853471 -4.615298 0.000000 0.000000 0.000000 8.138448 6.853472 -4.615310 -3.924076 28.385112 6.948709 6.044264 35.632714 -22.310171 -0.000002 -0.000000 -0.000000 0.991947 -15.521559 -11.873524 0.000000 0.000000 0.000000 2.947332 -1.004908 -32.103771 39.921937 -32.872573 -2.089462 12.741839 10.294086 2.732610 -10.171838 -9.655284 9.007727 2.321120 6.714502 2.170924 0.000008 0.000011 -0.000006 0.000004 0.000000 0.000000 -0.823930 -6.584362 -6.418249 -0.126845 0.207660 -21.714384 -0.000007 -0.000002 0.000000 0.000000 -0.000002 0.000002 1.294489 -1.113046 -9.321277 -0.178457 -0.773448 -14.430115 0.000001 0.000004 0.000007 -0.000000 -0.000001 0.000001 -0.565344 2.847714 -6.302101 -0.505474 -2.597467 -30.199487 0.000008 0.000000 0.000007 0.000003 -0.000002 0.000001 -0.248821 5.894602 -1.054407 -0.699241 -5.770478 -39.699324 0.000009 0.000010 0.000005 -0.000000 -0.000001 0.000002 3.297401 -18.314888 12.160852 0.000000 0.000000 0.000000 12.768043 -13.236290 60.187067 30.213113 39.380149 -4.024315 19.052434 -1.510650 11.776119 -7.035190 1.739445 -10.279226 -0.642353 -0.093894 -1.289340 0.000006 0.000003 0.000002 -0.000000 -0.000002 -0.000001 -3.340356 2.507655 5.478404 0.120540 -1.119643 16.859798 0.000001 -0.000001 0.000000 -0.000002 0.000000 -0.000001 -0.189043 -1.324962 0.979396 -0.357885 1.142257 22.115994 0.000001 -0.000005 0.000001 -0.000001 -0.000000 0.000001 1.946040 0.242698 1.015176 -0.619903 3.110100 28.344737 -0.000006 -0.000001 -0.000000 0.000004 0.000000 0.000000 4.839318 -1.854585 -3.962235 -1.320417 7.677265 37.620207 -0.000007 0.000007 0.000001 0.000002 0.000001 0.000000 -75.959237 -35.576188 30.549763 108.807973 -11.463625 -4.533611 -19.728812 6.236072 -21.620361 -0.945982 1.160330 0.702400 -0.000000 -0.000002 -0.000000 -44.335192 19.763036 -41.728815 97.148478 18.339727 7.153842 -29.573951 -12.575312 30.090535 -9.248157 -3.094963 -0.191137 0.000000 0.000002 0.000000 
2.684525 39.535240 -3.363319 0.463576 -176.218321 -8.590733 4.017278 4.478722 -2.697878 8.115213 6.854062 -4.611590 0.000000 0.000000 0.000000 8.115212 6.854068 -4.611584 -3.893993 28.384576 6.949294 6.058522 35.625932 -22.329895 -0.000001 0.000000 -0.000000 0.983014 -15.541325 -11.895335 0.000000 0.000000 0.000000 2.965898 -0.975596 -32.060891 39.955579 -32.910594 -2.104604 12.745298 10.287321 2.740125 -10.172297 -9.653892 9.008303 2.321120 6.714504 2.170926 0.000009 0.000011 -0.000005 0.000000 0.000000 0.000001 -0.828618 -6.612117 -6.414575 -0.126843 0.207660 -21.714387 -0.000006 -0.000002 -0.000001 -0.000001 -0.000000 0.000001 1.294502 -1.112997 -9.320916 -0.178461 -0.773448 -14.430115 0.000004 0.000006 0.000008 0.000004 0.000001 -0.000002 -0.564486 2.847563 -6.300950 -0.505474 -2.597468 -30.199483 0.000005 0.000005 0.000004 0.000001 -0.000002 -0.000002 -0.248489 5.894464 -1.053941 -0.699240 -5.770477 -39.699330 0.000003 0.000012 0.000007 -0.000001 0.000001 -0.000003 3.299775 -18.344995 12.110443 0.000000 0.000000 0.000000 12.768935 -13.198098 60.241408 30.218253 39.297613 -4.016856 19.086214 -1.501088 11.733838 -7.041335 1.762633 -10.274680 -0.642347 -0.093887 -1.289338 0.000004 0.000003 0.000002 0.000001 -0.000003 0.000001 -3.280164 2.555625 5.448242 0.120534 -1.119646 16.859799 -0.000001 -0.000001 0.000001 -0.000001 -0.000001 0.000001 -0.085924 -1.307461 0.995301 -0.357888 1.142260 22.115999 0.000001 -0.000002 0.000001 -0.000000 -0.000002 0.000002 1.946341 0.242907 1.016093 -0.619903 3.110098 28.344742 -0.000005 0.000002 -0.000002 0.000003 0.000000 0.000000 4.839143 -1.854393 -3.961742 -1.320419 7.677262 37.620200 -0.000002 0.000008 -0.000001 0.000003 -0.000000 0.000002 -76.015354 -35.586419 30.518774 108.812311 -11.450687 -4.528009 -19.720358 6.231068 -21.618433 -0.945011 1.159651 0.701674 0.000000 -0.000000 0.000000 -44.331421 19.748870 -41.733545 97.137140 18.334711 7.161746 -29.587959 -12.580197 30.087953 -9.247647 -3.096594 -0.190629 0.000001 -0.000000 0.000000 
2.682185 39.535912 -3.367761 0.438660 -176.222391 -8.600142 4.006473 4.478142 -2.700907 8.093580 6.853828 -4.615533 0.000000 0.000000 0.000000 8.093581 6.853819 -4.615522 -3.941499 28.376342 6.975595 6.129573 35.633292 -22.332419 0.000000 -0.000000 -0.000000 0.984353 -15.557354 -11.893250 0.000000 0.000000 0.000000 2.993952 -0.936737 -32.027751 39.996963 -32.956021 -2.104881 12.752487 10.324082 2.750441 -10.172775 -9.652524 9.008912 2.321124 6.714505 2.170925 0.000013 0.000012 -0.000006 -0.000003 0.000001 0.000001 -0.833430 -6.640639 -6.410810 -0.126849 0.207659 -21.714380 -0.000006 -0.000002 0.000000 -0.000000 -0.000001 0.000002 1.294505 -1.112965 -9.320514 -0.178458 -0.773447 -14.430115 0.000003 0.000004 0.000009 0.000007 0.000000 -0.000002 -0.563590 2.847401 -6.299821 -0.505477 -2.597467 -30.199490 0.000009 0.000001 0.000006 0.000002 -0.000002 0.000000 -0.248202 5.893916 -1.053449 -0.699243 -5.770477 -39.699324 0.000007 0.000012 0.000001 -0.000001 0.000001 -0.000003 3.302533 -18.350056 12.097406 0.000000 0.000000 0.000000 12.769790 -13.185358 60.268449 30.241349 39.257059 -4.029758 19.125795 -1.494292 11.725353 -7.048403 1.789075 -10.269485 -0.642352 -0.093891 -1.289340 0.000005 0.000000 0.000001 -0.000000 -0.000000 0.000003 -3.217554 2.602799 5.419790 0.120533 -1.119644 16.859799 0.000005 0.000001 0.000001 0.000003 0.000000 -0.000000 0.019115 -1.289087 1.011195 -0.357887 1.142263 22.115997 -0.000001 -0.000003 0.000001 -0.000001 -0.000001 -0.000000 1.946581 0.243099 1.016869 -0.619903 3.110100 28.344742 -0.000000 0.000001 -0.000001 0.000001 0.000001 -0.000000 4.838915 -1.854202 -3.961322 -1.320419 7.677264 37.620207 -0.000003 0.000007 0.000001 0.000001 -0.000001 0.000000 -76.049867 -35.579002 30.520215 108.818294 -11.450692 -4.521404 -19.724485 6.226170 -21.606612 -0.943992 1.159034 0.700959 -0.000000 0.000000 0.000000 -44.339310 19.751218 -41.723242 97.134552 18.331234 7.171105 -29.604280 -12.585692 30.084248 -9.247150 -3.098228 -0.190061 0.000000 -0.000002 -0.000000 
2.678920 39.531830 -3.373265 0.413372 -176.215493 -8.614655 3.997393 4.479298 -2.701119 8.075135 6.853914 -4.612893 0.000000 0.000000 0.000000 8.075140 6.853914 -4.612892 -3.925088 28.376660 6.958251 6.143552 35.639575 -22.329751 -0.000000 0.000000 0.000000 0.985470 -15.558940 -11.899339 0.000000 0.000000 0.000000 3.003095 -0.913854 -31.997056 40.016542 -32.998225 -2.121991 12.751325 10.346635 2.756605 -10.173259 -9.651240 9.009510 2.321124 6.714504 2.170926 0.000012 0.000010 -0.000007 -0.000004 0.000000 -0.000000 -0.838446 -6.669852 -6.406888 -0.126849 0.207660 -21.714384 -0.000007 -0.000002 0.000000 -0.000002 0.000000 -0.000003 1.294493 -1.112944 -9.320130 -0.178456 -0.773448 -14.430117 0.000004 0.000006 0.000008 0.000005 -0.000001 -0.000000 -0.562655 2.847220 -6.298616 -0.505475 -2.597468 -30.199483 0.000006 0.000003 0.000004 0.000002 -0.000001 0.000001 -0.247941 5.893322 -1.052760 -0.699242 -5.770478 -39.699327 0.000008 0.000012 0.000003 -0.000002 0.000001 -0.000002 3.306602 -18.371395 12.069629 0.000000 0.000000 0.000000 12.769772 -13.150469 60.289199 30.289915 39.220271 -4.043903 19.162128 -1.502720 11.706713 -7.056324 1.818810 -10.263626 -0.642355 -0.093891 -1.289341 0.000007 -0.000000 0.000001 -0.000000 -0.000002 0.000001 -3.152905 2.648906 5.393175 0.120535 -1.119647 16.859799 0.000001 0.000001 0.000001 0.000003 -0.000002 0.000001 0.125417 -1.270061 1.026997 -0.357889 1.142258 22.115997 0.000002 -0.000004 0.000002 -0.000001 -0.000001 0.000001 1.946784 0.243269 1.017464 -0.619906 3.110099 28.344742 0.000000 -0.000000 -0.000002 -0.000002 0.000000 -0.000000 4.838689 -1.853962 -3.961043 -1.320417 7.677262 37.620204 -0.000005 0.000007 0.000000 0.000003 -0.000001 0.000002 -76.118230 -35.574508 30.506323 108.831312 -11.451855 -4.509879 -19.715244 6.212393 -21.585303 -0.942972 1.158517 0.700153 0.000000 0.000001 -0.000000 -44.348664 19.731259 -41.729898 97.133234 18.336287 7.177406 -29.620423 -12.586468 30.073497 -9.246655 -3.090869 -0.187959 -0.000000 -0.000000 0.000000 
2.677418 39.527786 -3.378946 0.392609 -176.211326 -8.618004 3.990010 4.479630 -2.705832 8.060528 6.852984 -4.621321 0.000000 0.000000 0.000000 8.060526 6.852987 -4.621321 -3.932796 28.374822 6.974317 6.182026 35.648212 -22.344276 -0.000001 -0.000000 -0.000000 0.989913 -15.559825 -11.884048 0.000000 0.000000 0.000000 3.012709 -0.895598 -31.957034 40.026497 -33.053635 -2.138682 12.720315 10.396439 2.741202 -10.173687 -9.650028 9.010124 2.321121 6.714505 2.170927 0.000010 0.000011 -0.000008 0.000003 -0.000000 -0.000000 -0.843578 -6.699710 -6.402824 -0.126850 0.207659 -21.714385 -0.000005 -0.000004 0.000001 -0.000000 -0.000001 0.000001 1.294524 -1.112902 -9.319715 -0.178462 -0.773448 -14.430117 -0.000000 0.000005 0.000007 0.000004 -0.000000 -0.000000 -0.561677 2.847044 -6.297358 -0.505480 -2.597467 -30.199487 0.000005 0.000003 0.000007 0.000002 -0.000002 -0.000001 -0.247604 5.892745 -1.051805 -0.699239 -5.770478 -39.699327 0.000004 0.000009 0.000007 -0.000000 -0.000003 0.000001 3.317316 -18.385618 12.077700 0.000000 0.000000 0.000000 12.768339 -13.123599 60.285907 30.338314 39.207232 -4.054769 19.168523 -1.507856 11.672452 -7.065151 1.851864 -10.257088 -0.642352 -0.093894 -1.289341 0.000002 -0.000000 0.000000 0.000001 -0.000002 0.000000 -3.086632 2.693731 5.368554 0.120539 -1.119646 16.859798 -0.000001 0.000001 0.000001 -0.000003 -0.000000 0.000001 0.232281 -1.250527 1.042596 -0.357890 1.142261 22.115995 0.000001 -0.000002 0.000002 -0.000002 0.000001 -0.000001 1.946942 0.243431 1.017857 -0.619905 3.110100 28.344745 -0.000001 0.000002 -0.000001 -0.000001 0.000001 -0.000001 4.838420 -1.853695 -3.960847 -1.320417 7.677262 37.620204 -0.000008 0.000006 0.000002 -0.000000 0.000000 -0.000002 -76.156719 -35.572633 30.500380 108.838737 -11.454507 -4.506427 -19.712746 6.208187 -21.577464 -0.941882 1.158019 0.699335 0.000000 -0.000001 0.000000 -44.363154 19.716798 -41.751638 97.135358 18.339763 7.180633 -29.632731 -12.579978 30.052894 -9.246183 -3.081071 -0.185384 0.000001 0.000000 -0.000000 
